<svg width="700" height="400"><g><text x="16" y="195" class="annotation">y = 0</text><line x1="0" y1="200" x2="700" y2="200" class="svelte-muh2n5 svelte-ref-zero"></line><path class="sdArea" stroke="none" fill="rgba(253,224,221,0.6" d="M0,251.78689150769398L9.333333333333362,260.61158854757616L18.666666666666664,268.64363631433196L28.000000000000025,275.61050601441974L37.33333333333333,278.62132239146797L46.666666666666686,272.27559006106856L55.99999999999999,264.7445292402456L65.33333333333334,256.27981759639164L74.66666666666666,247.17009353423686L84.00000000000001,237.71990624346842L93.33333333333331,228.22801488162833L102.66666666666667,218.96793289440316L112,210.17253358573385L121.33333333333334,202.02385162948644L130.66666666666669,194.64844683026774L140,188.11795573178145L149.33333333333331,182.45385968475918L158.66666666666666,177.6351300690286L168,173.6073088465289L177.33333333333331,170.291724370635L186.66666666666666,167.59385683421976L195.99999999999997,165.41025727096726L205.33333333333334,163.6337984190118L214.66666666666666,162.15733872497188L224,160.8760963026573L233.33333333333337,159.68916819348337L242.66666666666669,158.50070669820542L252,157.22128206966573L261.33333333333337,155.76990768043837L270.6666666666667,154.07706167379857L280,152.08879868537534L289.3333333333333,149.77172149963786L298.66666666666663,147.11822354584672L308.00000000000006,144.15109530315485L317.3333333333333,140.92639583035344L326.6666666666667,137.53349056863442L336,134.09137363303836L345.3333333333333,130.7408072878098L354.66666666666663,127.63236935521218L364,124.9111284642969L373.3333333333333,122.69928628363374L382.66666666666663,121.07864947378471L391.99999999999994,120.0751352785461L401.33333333333337,119.64759347545015L410.6666666666667,119.68296197481061L420,119.94349366404066L429.3333333333333,110.26847353898478L438.6666666666667,100.88601369160091L448,91.92017439635822L457.3333333333333,83.43343090706355L466.66666666666674,75.49600348965686L475.99999999999994,68.1996384199798L485.33333333333337,61.66861561645652L494.6666666666667,56.065224895343476L504,51.58766737461622L513.3333333333333,48.45954505954404L522.6666666666667,46.911564263883236L532,47.15752221366773L541.3333333333334,49.36778835416527L550.6666666666666,53.644077491106316L560,59.943563054993945L569.3333333333333,58.035252981421706L578.6666666666666,57.99721572270329L588,59.914276746267774L597.3333333333333,63.69010589734489L606.6666666666666,69.11686532013306L616.0000000000001,75.89846964807248L625.3333333333334,83.68007854094486L634.6666666666666,92.08024304998952L644,100.72212479868574L653.3333333333334,109.26068752948663L662.6666666666666,117.40357780524812L672,124.92441297980241L681.3333333333333,131.66822675235392L690.6666666666666,137.5497514322949L700,142.54593667803476L700,221.79667040935584L690.6666666666666,216.291254341763L681.3333333333333,209.6248028104568L672,201.71479675218762L662.6666666666666,192.52269867568828L653.3333333333334,182.06761054154435L644,170.4378305563287L634.6666666666666,157.79834610061494L625.3333333333334,144.39240254839888L616.0000000000001,130.53575779009213L606.6666666666666,116.60304966427628L597.3333333333333,103.006767012958L588,90.17045971988665L578.6666666666666,78.49885150216369L569.3333333333333,68.34826193149348L560,60.05670011116479L550.6666666666666,63.73514032691412L541.3333333333334,68.96640760744333L532,75.32603305914927L522.6666666666667,82.38212825973153L513.3333333333333,89.67757357890179L504,96.77016447710633L494.6666666666667,103.270564517629L485.33333333333337,108.87395523874153L475.99999999999994,113.38213552246839L466.66666666666674,116.7140320090121L457.3333333333333,118.90399490290804L448,120.08868524183464L438.6666666666667,120.48463294487283L429.3333333333333,120.35953637478667L420,120.05663072021156L410.6666666666667,129.99597092485658L401.33333333333337,140.14922925479345L391.99999999999994,150.33131825174314L382.66666666666663,160.39531058798727L373.3333333333333,170.18547062320425L364,179.54841659175494L354.66666666666663,188.34469331699069L345.3333333333333,196.45891019745974L336,203.8070789635991L326.6666666666667,210.3404123143107L317.3333333333333,216.04551303544332L308.00000000000006,220.94146874577632L298.66666666666663,225.07477131875018L289.3333333333333,228.51314929083438L280,231.33933920891852L270.6666666666667,233.6455835815639L261.33333333333337,235.52931687674612L252,237.09017501786244L242.66666666666669,238.42819726432822L233.33333333333337,239.6429013607007L224,240.8327931302594L214.66666666666666,242.09480289702398L205.33333333333334,243.5231177600845L195.99999999999997,245.20691356616376L186.66666666666666,247.2266074377473L177.33333333333331,249.64847066994452L168,252.5177607341888L158.66666666666666,255.85091407887322L149.33333333333331,259.62771855453934L140,263.78466772648153L130.66666666666669,268.21081008002443L121.33333333333334,272.7472993802906L112,277.19152861509576L102.66666666666667,281.30622865396913L93.33333333333331,284.83329861546326L84.00000000000001,287.51148582685806L74.66666666666666,289.0964344617192L65.33333333333334,289.38116156878294L55.99999999999999,288.2147798441525L46.666666666666686,285.51734112037934L37.33333333333333,281.2896467426364L28.000000000000025,283.5913455891662L18.666666666666664,287.0594256936454L9.333333333333362,288.9862735947624L0,289.41249944514414Z"></path><path class="curve" fill="none" stroke="#c51b8a" stroke-width="2px" d="M0,270.5996954764191L9.333333333333362,274.79893107116925L18.666666666666664,277.85153100398867L28.000000000000025,279.600925801793L37.33333333333333,279.95548456705217L46.666666666666686,278.89646559072395L55.99999999999999,276.479654542199L65.33333333333334,272.8304895825873L74.66666666666666,268.133263997978L84.00000000000001,262.61569603516324L93.33333333333331,256.53065674854577L102.66666666666667,250.13708077418616L112,243.68203110041483L121.33333333333334,237.38557550488852L130.66666666666669,231.4296284551461L140,225.95131172913145L149.33333333333331,221.04078911964928L158.66666666666666,216.7430220739509L168,213.06253479035882L177.33333333333331,209.97009752028976L186.66666666666666,207.41023213598353L195.99999999999997,205.30858541856554L205.33333333333334,203.57845808954812L214.66666666666666,202.12607081099793L224,200.85444471645837L233.33333333333337,199.66603477709205L242.66666666666669,198.4644519812668L252,197.1557285437641L261.33333333333337,195.64961227859223L270.6666666666667,193.86132262768126L280,191.7140689471469L289.3333333333333,189.1424353952361L298.66666666666663,186.09649743229846L308.00000000000006,182.54628202446557L317.3333333333333,178.48595443289835L326.6666666666667,173.9369514414726L336,168.94922629831876L345.3333333333333,163.59985874263475L354.66666666666663,157.98853133610146L364,152.22977252802593L373.3333333333333,146.442378453419L382.66666666666663,140.73698003088595L391.99999999999994,135.20322676514462L401.33333333333337,129.89841136512183L410.6666666666667,124.8394664498336L420,120.00006219212611L429.3333333333333,115.3140049568857L438.6666666666667,110.68532331823684L448,106.0044298190964L457.3333333333333,101.1687129049858L466.66666666666674,96.10501774933448L475.99999999999994,90.79088697122415L485.33333333333337,85.27128542759903L494.6666666666667,79.66789470648621L504,74.1789159258613L513.3333333333333,69.06855931922291L522.6666666666667,64.64684626180741L532,61.24177763640853L541.3333333333334,59.167097980804215L550.6666666666666,58.689608909010246L560,60.000131583079394L569.3333333333333,63.191757456457594L578.6666666666666,68.24803361243357L588,75.04236823307718L597.3333333333333,83.34843645515144L606.6666666666666,92.85995749220473L616.0000000000001,103.2171137190823L625.3333333333334,114.03624054467184L634.6666666666666,124.93929457530226L644,135.5799776775072L653.3333333333334,145.6641490355155L662.6666666666666,154.9631382404682L672,163.31960486599502L681.3333333333333,170.64651478140536L690.6666666666666,176.92050288702893L700,182.17130354369527"></path><path class="sdPlus" fill="none" stroke="#fa9fb5" stroke-width="1px" d="M0,251.78689150769398L9.333333333333362,260.61158854757616L18.666666666666664,268.64363631433196L28.000000000000025,275.61050601441974L37.33333333333333,278.62132239146797L46.666666666666686,272.27559006106856L55.99999999999999,264.7445292402456L65.33333333333334,256.27981759639164L74.66666666666666,247.17009353423686L84.00000000000001,237.71990624346842L93.33333333333331,228.22801488162833L102.66666666666667,218.96793289440316L112,210.17253358573385L121.33333333333334,202.02385162948644L130.66666666666669,194.64844683026774L140,188.11795573178145L149.33333333333331,182.45385968475918L158.66666666666666,177.6351300690286L168,173.6073088465289L177.33333333333331,170.291724370635L186.66666666666666,167.59385683421976L195.99999999999997,165.41025727096726L205.33333333333334,163.6337984190118L214.66666666666666,162.15733872497188L224,160.8760963026573L233.33333333333337,159.68916819348337L242.66666666666669,158.50070669820542L252,157.22128206966573L261.33333333333337,155.76990768043837L270.6666666666667,154.07706167379857L280,152.08879868537534L289.3333333333333,149.77172149963786L298.66666666666663,147.11822354584672L308.00000000000006,144.15109530315485L317.3333333333333,140.92639583035344L326.6666666666667,137.53349056863442L336,134.09137363303836L345.3333333333333,130.7408072878098L354.66666666666663,127.63236935521218L364,124.9111284642969L373.3333333333333,122.69928628363374L382.66666666666663,121.07864947378471L391.99999999999994,120.0751352785461L401.33333333333337,119.64759347545015L410.6666666666667,119.68296197481061L420,119.94349366404066L429.3333333333333,110.26847353898478L438.6666666666667,100.88601369160091L448,91.92017439635822L457.3333333333333,83.43343090706355L466.66666666666674,75.49600348965686L475.99999999999994,68.1996384199798L485.33333333333337,61.66861561645652L494.6666666666667,56.065224895343476L504,51.58766737461622L513.3333333333333,48.45954505954404L522.6666666666667,46.911564263883236L532,47.15752221366773L541.3333333333334,49.36778835416527L550.6666666666666,53.644077491106316L560,59.943563054993945L569.3333333333333,58.035252981421706L578.6666666666666,57.99721572270329L588,59.914276746267774L597.3333333333333,63.69010589734489L606.6666666666666,69.11686532013306L616.0000000000001,75.89846964807248L625.3333333333334,83.68007854094486L634.6666666666666,92.08024304998952L644,100.72212479868574L653.3333333333334,109.26068752948663L662.6666666666666,117.40357780524812L672,124.92441297980241L681.3333333333333,131.66822675235392L690.6666666666666,137.5497514322949L700,142.54593667803476"></path><path class="sdMinus" fill="none" stroke="#fa9fb5" stroke-width="1px" d="M0,289.41249944514414L9.333333333333362,288.9862735947624L18.666666666666664,287.0594256936454L28.000000000000025,283.5913455891662L37.33333333333333,281.2896467426364L46.666666666666686,285.51734112037934L55.99999999999999,288.2147798441525L65.33333333333334,289.38116156878294L74.66666666666666,289.0964344617192L84.00000000000001,287.51148582685806L93.33333333333331,284.83329861546326L102.66666666666667,281.30622865396913L112,277.19152861509576L121.33333333333334,272.7472993802906L130.66666666666669,268.21081008002443L140,263.78466772648153L149.33333333333331,259.62771855453934L158.66666666666666,255.85091407887322L168,252.5177607341888L177.33333333333331,249.64847066994452L186.66666666666666,247.2266074377473L195.99999999999997,245.20691356616376L205.33333333333334,243.5231177600845L214.66666666666666,242.09480289702398L224,240.8327931302594L233.33333333333337,239.6429013607007L242.66666666666669,238.42819726432822L252,237.09017501786244L261.33333333333337,235.52931687674612L270.6666666666667,233.6455835815639L280,231.33933920891852L289.3333333333333,228.51314929083438L298.66666666666663,225.07477131875018L308.00000000000006,220.94146874577632L317.3333333333333,216.04551303544332L326.6666666666667,210.3404123143107L336,203.8070789635991L345.3333333333333,196.45891019745974L354.66666666666663,188.34469331699069L364,179.54841659175494L373.3333333333333,170.18547062320425L382.66666666666663,160.39531058798727L391.99999999999994,150.33131825174314L401.33333333333337,140.14922925479345L410.6666666666667,129.99597092485658L420,120.05663072021156L429.3333333333333,120.35953637478667L438.6666666666667,120.48463294487283L448,120.08868524183464L457.3333333333333,118.90399490290804L466.66666666666674,116.7140320090121L475.99999999999994,113.38213552246839L485.33333333333337,108.87395523874153L494.6666666666667,103.270564517629L504,96.77016447710633L513.3333333333333,89.67757357890179L522.6666666666667,82.38212825973153L532,75.32603305914927L541.3333333333334,68.96640760744333L550.6666666666666,63.73514032691412L560,60.05670011116479L569.3333333333333,68.34826193149348L578.6666666666666,78.49885150216369L588,90.17045971988665L597.3333333333333,103.006767012958L606.6666666666666,116.60304966427628L616.0000000000001,130.53575779009213L625.3333333333334,144.39240254839888L634.6666666666666,157.79834610061494L644,170.4378305563287L653.3333333333334,182.06761054154435L662.6666666666666,192.52269867568828L672,201.71479675218762L681.3333333333333,209.6248028104568L690.6666666666666,216.291254341763L700,221.79667040935584"></path></g><g><circle cx="35" cy="280" r="3" fill="rgba(0,0,0,0.6)"></circle><circle class="trainingPoint active svelte-muh2n5" cx="35" cy="280" r="6"></circle><circle class="trainingPoint inactive svelte-muh2n5" cx="210" cy="340" r="6"></circle><circle class="trainingPoint inactive svelte-muh2n5" cx="280" cy="220" r="6"></circle><circle cx="420" cy="120" r="3" fill="rgba(0,0,0,0.6)"></circle><circle class="trainingPoint active svelte-muh2n5" cx="420" cy="120" r="6"></circle><circle cx="560" cy="60" r="3" fill="rgba(0,0,0,0.6)"></circle><circle class="trainingPoint active svelte-muh2n5" cx="560" cy="60" r="6"></circle></g><text x="16" y="10" class="annotation"><tspan font-weight="bold">Regression</tspan> is used to find a function <tspan fill="#c51b8a">(line)</tspan><tspan x="16" dy="1.5em">that represents a set of data points as closely</tspan><tspan x="16" dy="1.5em">as possible</tspan></text><text x="450" y="300" class="annotation">A <tspan font-weight="bold">Gaussian process</tspan> is a probabilistic
    <tspan x="450" dy="1.5em">method that gives a confidence</tspan><tspan x="450" dy="1.5em"><tspan fill="#fa9fb5">(shaded)</tspan> for the predicted function</tspan></text></svg>