<svg width="700" height="400"><g><text x="16" y="195" class="annotation">y = 0</text><line x1="0" y1="200" x2="700" y2="200" class="svelte-muh2n5 svelte-ref-zero"></line><path class="sdArea" stroke="none" fill="rgba(253,224,221,0.6" d="M0,246.6783084560746L9.333333333333362,256.07181455299985L18.666666666666664,265.17585188635996L28.000000000000025,273.8431965865983L37.33333333333333,279.34109499189503L46.666666666666686,276.50261748285027L55.99999999999999,273.6047313093681L65.33333333333334,271.0530295275216L74.66666666666666,269.2699586839457L84.00000000000001,268.6580777903886L93.33333333333331,269.56025826830853L102.66666666666667,272.22089936335425L112,276.75177147164857L121.33333333333334,283.1060070520268L130.66666666666669,291.063426022197L140,300.22977318335467L149.33333333333331,310.0515171842135L158.66666666666666,319.8465857326332L168,328.84982199504185L177.33333333333331,336.27017208418306L186.66666666666666,341.3548851853339L195.99999999999997,343.454615209331L205.33333333333334,342.0822997121491L214.66666666666666,333.74485992801095L224,319.53803462477293L233.33333333333337,303.53066178078996L242.66666666666669,286.3778787340036L252,268.78937222283196L261.33333333333337,251.46511511071722L270.6666666666667,235.03340839816332L280,219.94352073450514L289.3333333333333,199.74026405028224L298.66666666666663,180.8514852879615L308.00000000000006,163.86572296906374L317.3333333333333,149.15418339926168L326.6666666666667,136.9247303952627L336,127.23461255240494L345.3333333333333,120.0129263996377L354.66666666666663,115.08792748925174L364,112.21451548727123L373.3333333333333,111.09826060689073L382.66666666666663,111.41389079800092L391.99999999999994,112.81787060039676L401.33333333333337,114.9562201795651L410.6666666666667,117.46973281711723L420,119.94348353164122L429.3333333333333,112.5363954269809L438.6666666666667,104.77464091950162L448,96.84233204423742L457.3333333333333,88.88141744016116L466.66666666666674,81.05173293914356L475.99999999999994,73.53712282990068L485.33333333333337,66.55048479423715L494.6666666666667,60.33494673117934L504,55.15898814743804L513.3333333333333,51.30445986190102L522.6666666666667,49.04788716838851L532,48.63687963368477L541.3333333333334,50.26462534415532L550.6666666666666,54.04605744773113L560,59.943564397096566L569.3333333333333,57.73303875114743L578.6666666666666,57.47462259971769L588,59.2453175488771L597.3333333333333,62.938706440681926L606.6666666666666,68.33573515124459L616.0000000000001,75.12890150126924L625.3333333333334,82.95246602637565L634.6666666666666,91.41511416858805L644,100.13150575941631L653.3333333333334,108.74963425246386L662.6666666666666,116.97173929002804L672,124.56751962901689L681.3333333333333,131.379426134987L690.6666666666666,137.32074226816889L700,142.36787753827036L700,221.61825922901656L690.6666666666666,216.06165872030107L681.3333333333333,209.33505943341046L672,201.35644050670808L662.6666666666666,192.0886684185799L653.3333333333334,181.55338633446058L644,169.8427823215126L634.6666666666666,157.1272485910955L625.3333333333334,143.65704390167832L616.0000000000001,129.75654020766194L606.6666666666666,115.81045239463538L597.3333333333333,102.24251519531799L588,89.48821912491616L578.6666666666666,77.96425031098056L569.3333333333333,68.03802843525256L560,60.056701453254846L550.6666666666666,64.12343463197499L541.3333333333334,69.82827284495193L532,76.73938657226648L522.6666666666667,84.40948410771603L513.3333333333333,92.35671096273103L504,100.10388226889194L494.6666666666667,107.21612107719471L485.33333333333337,113.33304610275093L475.99999999999994,118.19253219280722L466.66666666666674,121.64427224552924L457.3333333333333,123.65274794223768L448,124.29057108351998L438.6666666666667,123.72429641974418L429.3333333333333,122.19559660038317L420,120.05662058701449L410.6666666666667,127.0505698986563L401.33333333333337,133.59173684518623L391.99999999999994,139.55776686331313L382.66666666666663,144.92580859056784L373.3333333333333,149.73221284326158L364,154.08586944459088L354.66666666666663,158.1759390801431L345.3333333333333,162.27081314223034L336,166.70615352422357L326.6666666666667,171.8613244657337L317.3333333333333,178.12528320808937L308.00000000000006,185.8548108839688L298.66666666666663,195.32956804265433L289.3333333333333,206.70961619536067L280,220.0566577734835L270.6666666666667,240.95393891159773L261.33333333333337,261.81712854865543L252,281.75026345594455L242.66666666666669,299.918880645064L233.33333333333337,315.56156456655816L224,328.054084103529L214.66666666666666,336.96364804431977L205.33333333333334,345.61384788606136L195.99999999999997,354.76105145198403L186.66666666666666,361.0009486163421L177.33333333333331,364.34253364525557L168,364.97908558001023L158.66666666666666,363.2545209279379L149.33333333333331,359.61575095074267L140,354.55732386867317L130.66666666666669,348.5656211031268L121.33333333333334,342.0695601878732L112,335.4034749167668L102.66666666666667,328.7858295142968L93.33333333333331,322.31501045317157L84.00000000000001,315.9810156649091L74.66666666666666,309.6898033489596L65.33333333333334,303.29566435570155L55.99999999999999,296.63639877148523L46.666666666666686,289.56632039142585L37.33333333333333,281.9836531107822L28.000000000000025,281.76850355125725L18.666666666666664,283.49943694895285L9.333333333333362,284.3443564051123L0,284.20670537026314Z"></path><path class="curve" fill="none" stroke="#c51b8a" stroke-width="2px" d="M0,265.44250691316887L9.333333333333362,270.2080854790561L18.666666666666664,274.3376444176564L28.000000000000025,277.8058500689278L37.33333333333333,280.66237405133865L46.666666666666686,283.03446893713806L55.99999999999999,285.12056504042664L65.33333333333334,287.1743469416116L74.66666666666666,289.4798810164526L84.00000000000001,292.31954672764886L93.33333333333331,295.93763436074005L102.66666666666667,300.50336443882554L112,306.0776231942077L121.33333333333334,312.58778361994996L130.66666666666669,319.81452356266186L140,327.3935485260139L149.33333333333331,334.83363406747804L158.66666666666666,341.55055333028554L168,346.91445378752604L177.33333333333331,350.3063528647193L186.66666666666666,351.177916900838L195.99999999999997,349.1078333306575L205.33333333333334,343.84807379910524L214.66666666666666,335.35425398616536L224,323.796059364151L233.33333333333337,309.54611317367403L242.66666666666669,293.14837968953384L252,275.2698178393883L261.33333333333337,256.6411218296863L270.6666666666667,237.99367365488052L280,220.0000892539943L289.3333333333333,203.2249401228215L298.66666666666663,188.09052666530795L308.00000000000006,174.8602669265163L317.3333333333333,163.6397333036755L326.6666666666667,154.39302743049822L336,146.97038303831425L345.3333333333333,141.14186977093402L354.66666666666663,136.63193328469748L364,133.150192465931L373.3333333333333,130.41523672507617L382.66666666666663,128.16984969428438L391.99999999999994,126.18781873185497L401.33333333333337,124.27397851237572L410.6666666666667,122.26015135788674L420,120.00005205932786L429.3333333333333,117.36599601368198L438.6666666666667,114.2494686696229L448,110.56645156387867L457.3333333333333,106.26708269119945L466.66666666666674,101.34800259233646L475.99999999999994,95.86482751135401L485.33333333333337,89.94176544849404L494.6666666666667,83.77553390418706L504,77.63143520816499L513.3333333333333,71.830585412316L522.6666666666667,66.72868563805224L532,62.6881331029756L541.3333333333334,60.04644909455362L550.6666666666666,59.08474603985303L560,60.00013292517565L569.3333333333333,62.885533593199966L578.6666666666666,67.71943645534918L588,74.36676833689666L597.3333333333333,82.59061081799996L606.6666666666666,92.07309377293996L616.0000000000001,102.44272085446562L625.3333333333334,113.30475496402698L634.6666666666666,124.27118137984178L644,134.98714404046444L653.3333333333334,145.15151029346222L662.6666666666666,154.53020385430395L672,162.96198006786247L681.3333333333333,170.35724278419872L690.6666666666666,176.691200494235L700,181.99306838364345"></path><path class="sdPlus" fill="none" stroke="#fa9fb5" stroke-width="1px" d="M0,246.6783084560746L9.333333333333362,256.07181455299985L18.666666666666664,265.17585188635996L28.000000000000025,273.8431965865983L37.33333333333333,279.34109499189503L46.666666666666686,276.50261748285027L55.99999999999999,273.6047313093681L65.33333333333334,271.0530295275216L74.66666666666666,269.2699586839457L84.00000000000001,268.6580777903886L93.33333333333331,269.56025826830853L102.66666666666667,272.22089936335425L112,276.75177147164857L121.33333333333334,283.1060070520268L130.66666666666669,291.063426022197L140,300.22977318335467L149.33333333333331,310.0515171842135L158.66666666666666,319.8465857326332L168,328.84982199504185L177.33333333333331,336.27017208418306L186.66666666666666,341.3548851853339L195.99999999999997,343.454615209331L205.33333333333334,342.0822997121491L214.66666666666666,333.74485992801095L224,319.53803462477293L233.33333333333337,303.53066178078996L242.66666666666669,286.3778787340036L252,268.78937222283196L261.33333333333337,251.46511511071722L270.6666666666667,235.03340839816332L280,219.94352073450514L289.3333333333333,199.74026405028224L298.66666666666663,180.8514852879615L308.00000000000006,163.86572296906374L317.3333333333333,149.15418339926168L326.6666666666667,136.9247303952627L336,127.23461255240494L345.3333333333333,120.0129263996377L354.66666666666663,115.08792748925174L364,112.21451548727123L373.3333333333333,111.09826060689073L382.66666666666663,111.41389079800092L391.99999999999994,112.81787060039676L401.33333333333337,114.9562201795651L410.6666666666667,117.46973281711723L420,119.94348353164122L429.3333333333333,112.5363954269809L438.6666666666667,104.77464091950162L448,96.84233204423742L457.3333333333333,88.88141744016116L466.66666666666674,81.05173293914356L475.99999999999994,73.53712282990068L485.33333333333337,66.55048479423715L494.6666666666667,60.33494673117934L504,55.15898814743804L513.3333333333333,51.30445986190102L522.6666666666667,49.04788716838851L532,48.63687963368477L541.3333333333334,50.26462534415532L550.6666666666666,54.04605744773113L560,59.943564397096566L569.3333333333333,57.73303875114743L578.6666666666666,57.47462259971769L588,59.2453175488771L597.3333333333333,62.938706440681926L606.6666666666666,68.33573515124459L616.0000000000001,75.12890150126924L625.3333333333334,82.95246602637565L634.6666666666666,91.41511416858805L644,100.13150575941631L653.3333333333334,108.74963425246386L662.6666666666666,116.97173929002804L672,124.56751962901689L681.3333333333333,131.379426134987L690.6666666666666,137.32074226816889L700,142.36787753827036"></path><path class="sdMinus" fill="none" stroke="#fa9fb5" stroke-width="1px" d="M0,284.20670537026314L9.333333333333362,284.3443564051123L18.666666666666664,283.49943694895285L28.000000000000025,281.76850355125725L37.33333333333333,281.9836531107822L46.666666666666686,289.56632039142585L55.99999999999999,296.63639877148523L65.33333333333334,303.29566435570155L74.66666666666666,309.6898033489596L84.00000000000001,315.9810156649091L93.33333333333331,322.31501045317157L102.66666666666667,328.7858295142968L112,335.4034749167668L121.33333333333334,342.0695601878732L130.66666666666669,348.5656211031268L140,354.55732386867317L149.33333333333331,359.61575095074267L158.66666666666666,363.2545209279379L168,364.97908558001023L177.33333333333331,364.34253364525557L186.66666666666666,361.0009486163421L195.99999999999997,354.76105145198403L205.33333333333334,345.61384788606136L214.66666666666666,336.96364804431977L224,328.054084103529L233.33333333333337,315.56156456655816L242.66666666666669,299.918880645064L252,281.75026345594455L261.33333333333337,261.81712854865543L270.6666666666667,240.95393891159773L280,220.0566577734835L289.3333333333333,206.70961619536067L298.66666666666663,195.32956804265433L308.00000000000006,185.8548108839688L317.3333333333333,178.12528320808937L326.6666666666667,171.8613244657337L336,166.70615352422357L345.3333333333333,162.27081314223034L354.66666666666663,158.1759390801431L364,154.08586944459088L373.3333333333333,149.73221284326158L382.66666666666663,144.92580859056784L391.99999999999994,139.55776686331313L401.33333333333337,133.59173684518623L410.6666666666667,127.0505698986563L420,120.05662058701449L429.3333333333333,122.19559660038317L438.6666666666667,123.72429641974418L448,124.29057108351998L457.3333333333333,123.65274794223768L466.66666666666674,121.64427224552924L475.99999999999994,118.19253219280722L485.33333333333337,113.33304610275093L494.6666666666667,107.21612107719471L504,100.10388226889194L513.3333333333333,92.35671096273103L522.6666666666667,84.40948410771603L532,76.73938657226648L541.3333333333334,69.82827284495193L550.6666666666666,64.12343463197499L560,60.056701453254846L569.3333333333333,68.03802843525256L578.6666666666666,77.96425031098056L588,89.48821912491616L597.3333333333333,102.24251519531799L606.6666666666666,115.81045239463538L616.0000000000001,129.75654020766194L625.3333333333334,143.65704390167832L634.6666666666666,157.1272485910955L644,169.8427823215126L653.3333333333334,181.55338633446058L662.6666666666666,192.0886684185799L672,201.35644050670808L681.3333333333333,209.33505943341046L690.6666666666666,216.06165872030107L700,221.61825922901656"></path></g><g><circle cx="35" cy="280" r="3" fill="rgba(0,0,0,0.6)"></circle><circle class="trainingPoint active svelte-muh2n5" cx="35" cy="280" r="6"></circle><circle cx="210" cy="340" r="3" fill="rgba(0,0,0,0.6)"></circle><circle class="trainingPoint active svelte-muh2n5" cx="210" cy="340" r="6"></circle><circle cx="280" cy="220" r="3" fill="rgba(0,0,0,0.6)"></circle><circle class="trainingPoint active svelte-muh2n5" cx="280" cy="220" r="6"></circle><circle cx="420" cy="120" r="3" fill="rgba(0,0,0,0.6)"></circle><circle class="trainingPoint active svelte-muh2n5" cx="420" cy="120" r="6"></circle><circle cx="560" cy="60" r="3" fill="rgba(0,0,0,0.6)"></circle><circle class="trainingPoint active svelte-muh2n5" cx="560" cy="60" r="6"></circle></g><text x="16" y="10" class="annotation"><tspan font-weight="bold">Regression</tspan> is used to find a function <tspan fill="#c51b8a">(line)</tspan><tspan x="16" dy="1.5em">that represents a set of data points as closely</tspan><tspan x="16" dy="1.5em">as possible</tspan></text><text x="450" y="300" class="annotation">A <tspan font-weight="bold">Gaussian process</tspan> is a probabilistic
    <tspan x="450" dy="1.5em">method that gives a confidence</tspan><tspan x="450" dy="1.5em"><tspan fill="#fa9fb5">(shaded)</tspan> for the predicted function</tspan></text></svg>